<svg width="1200" height="640" viewBox="0 0 1200 640" fill="none" xmlns="http://www.w3.org/2000/svg">
  <rect width="1200" height="640" rx="32" fill="#08111E"/>
  <rect x="36" y="36" width="1128" height="568" rx="24" fill="url(#panel)"/>
  <path d="M0 540C164 478 274 438 412 414C579 385 760 388 1200 462V640H0V540Z" fill="url(#glow)" opacity="0.72"/>
  <g opacity="0.15" stroke="#86A1C1">
    <path d="M92 116H1108"/>
    <path d="M92 196H1108"/>
    <path d="M92 276H1108"/>
    <path d="M92 356H1108"/>
    <path d="M92 436H1108"/>
    <path d="M92 516H1108"/>
    <path d="M240 88V548"/>
    <path d="M420 88V548"/>
    <path d="M600 88V548"/>
    <path d="M780 88V548"/>
    <path d="M960 88V548"/>
  </g>
  <rect x="88" y="82" width="180" height="32" rx="16" fill="#14243B"/>
  <text x="112" y="103" fill="#F6F7FB" font-size="14" font-family="Arial, Helvetica, sans-serif" letter-spacing="2">FAST EXPRESS KDS</text>
  <text x="88" y="180" fill="#F8FAFC" font-size="56" font-weight="700" font-family="Georgia, 'Times New Roman', serif">Decision support for</text>
  <text x="88" y="236" fill="#F8FAFC" font-size="56" font-weight="700" font-family="Georgia, 'Times New Roman', serif">cargo branch operations.</text>
  <text x="88" y="286" fill="#C8D5E3" font-size="24" font-family="Arial, Helvetica, sans-serif">Branch analytics, personnel review, comparison, reporting, and forecasting</text>
  <text x="88" y="320" fill="#C8D5E3" font-size="24" font-family="Arial, Helvetica, sans-serif">built for the Fast Express management workflow.</text>

  <rect x="88" y="384" width="520" height="124" rx="20" fill="#0F1E31" stroke="#243A58"/>
  <text x="118" y="420" fill="#F8FAFC" font-size="20" font-weight="700" font-family="Arial, Helvetica, sans-serif">Operational lanes</text>
  <text x="118" y="455" fill="#D6E1EC" font-size="18" font-family="Arial, Helvetica, sans-serif">Home dashboard  /  Branch drill-down  /  Personnel scoring</text>
  <text x="118" y="486" fill="#D6E1EC" font-size="18" font-family="Arial, Helvetica, sans-serif">Cross-branch comparison  /  Reporting  /  Forecast service</text>

  <rect x="700" y="96" width="392" height="168" rx="22" fill="#FFF8F6"/>
  <text x="732" y="136" fill="#8B1E3F" font-size="18" font-weight="700" font-family="Arial, Helvetica, sans-serif">Manager view</text>
  <text x="732" y="178" fill="#0F172A" font-size="40" font-weight="700" font-family="Georgia, 'Times New Roman', serif">One dashboard</text>
  <text x="732" y="219" fill="#334155" font-size="20" font-family="Arial, Helvetica, sans-serif">to review branch health, cost pressure,</text>
  <text x="732" y="246" fill="#334155" font-size="20" font-family="Arial, Helvetica, sans-serif">and next-period projections.</text>

  <rect x="700" y="292" width="186" height="126" rx="20" fill="#101F34" stroke="#2A4264"/>
  <text x="726" y="328" fill="#FB7185" font-size="16" font-weight="700" font-family="Arial, Helvetica, sans-serif">Branch analytics</text>
  <text x="726" y="362" fill="#F8FAFC" font-size="30" font-weight="700" font-family="Georgia, 'Times New Roman', serif">Income</text>
  <text x="726" y="391" fill="#D2DCE8" font-size="18" font-family="Arial, Helvetica, sans-serif">Costs, rent, profit,</text>
  <text x="726" y="414" fill="#D2DCE8" font-size="18" font-family="Arial, Helvetica, sans-serif">shipment volume</text>

  <rect x="906" y="292" width="186" height="126" rx="20" fill="#101F34" stroke="#2A4264"/>
  <text x="932" y="328" fill="#7DD3FC" font-size="16" font-weight="700" font-family="Arial, Helvetica, sans-serif">Forecasting</text>
  <text x="932" y="362" fill="#F8FAFC" font-size="30" font-weight="700" font-family="Georgia, 'Times New Roman', serif">2025</text>
  <text x="932" y="391" fill="#D2DCE8" font-size="18" font-family="Arial, Helvetica, sans-serif">Linear regression</text>
  <text x="932" y="414" fill="#D2DCE8" font-size="18" font-family="Arial, Helvetica, sans-serif">plus inflation factor</text>

  <rect x="700" y="446" width="392" height="102" rx="20" fill="#FFF8F6"/>
  <text x="732" y="482" fill="#8B1E3F" font-size="18" font-weight="700" font-family="Arial, Helvetica, sans-serif">Repository scope</text>
  <text x="732" y="515" fill="#334155" font-size="20" font-family="Arial, Helvetica, sans-serif">Express app, Flask forecast service, MySQL queries,</text>
  <text x="732" y="541" fill="#334155" font-size="20" font-family="Arial, Helvetica, sans-serif">and dashboard routes delivered for the course project.</text>

  <defs>
    <linearGradient id="panel" x1="36" y1="36" x2="1164" y2="604" gradientUnits="userSpaceOnUse">
      <stop stop-color="#0D1727"/>
      <stop offset="1" stop-color="#13243A"/>
    </linearGradient>
    <linearGradient id="glow" x1="600" y1="414" x2="600" y2="640" gradientUnits="userSpaceOnUse">
      <stop stop-color="#C53D61"/>
      <stop offset="1" stop-color="#4D89F7" stop-opacity="0"/>
    </linearGradient>
  </defs>
</svg>
